<svg width="32" height="32" viewBox="0 0 32 32" fill="none" xmlns="http://www.w3.org/2000/svg">
  <rect width="32" height="32" rx="6" fill="url(#gradient)"/>
  <path d="M16 8C11.6 8 8 11.6 8 16C8 20.4 11.6 24 16 24C20.4 24 24 20.4 24 16C24 11.6 20.4 8 16 8ZM16 11C17.1 11 18 11.9 18 13C18 14.1 17.1 15 16 15C14.9 15 14 14.1 14 13C14 11.9 14.9 11 16 11ZM16 21.2C14 21.2 12.3 19.9 11.5 18.1C11.7 16.9 14 16.3 16 16.3C18 16.3 20.3 16.9 20.5 18.1C19.7 19.9 18 21.2 16 21.2Z" fill="white"/>
  <defs>
    <linearGradient id="gradient" x1="0" y1="0" x2="32" y2="32" gradientUnits="userSpaceOnUse">
      <stop stop-color="#dc2626"/>
      <stop offset="1" stop-color="#f97316"/>
    </linearGradient>
  </defs>
</svg>
